# xmcd
#
# Track frame offsets:
#	150
#	18150
#	39249
#	56469
#	77898
#	96293
#	111672
#	131039
#	148882
#	168355
#	183190
#	199338
#
# Disc length: 2867 seconds
#
# Revision: 1
# Processed by: cddbd v1.5.2PL0 Copyright (c) Steve Scherf et al.
# Submitted via: audiograbber 1.83.01
#
DISCID=a70b310c
DTITLE=Asking Alexandria - The Black
DYEAR=2016
DGENRE=Metalcore
TTITLE0=Let It Sleep
TTITLE1=The Black
TTITLE2=I Won't Give In
TTITLE3=Sometimes It Ends
TTITLE4=The Lost Souls
TTITLE5=Just A Slave To Rock 'n Roll
TTITLE6=Send Me Home
TTITLE7=We'll Be OK
TTITLE8=Here I Am
TTITLE9=Gone
TTITLE10=Undivided
TTITLE11=Circled By The Wolves
EXTD=MARO\n
EXTT0=
EXTT1=
EXTT2=
EXTT3=
EXTT4=
EXTT5=
EXTT6=
EXTT7=
EXTT8=
EXTT9=
EXTT10=
EXTT11=
PLAYORDER=
